<svg  xmlns="http://www.w3.org/2000/svg" xmlns:xlink="http://www.w3.org/1999/xlink" width="54px" height="53px"><path fill-rule="evenodd"  fill="rgb(24, 114, 191)" d="M-0.000,-0.000 L54.000,-0.000 L54.000,53.000 L-0.000,53.000 L-0.000,-0.000 Z"/><path fill-rule="evenodd"  fill="rgb(255, 255, 255)" d="M30.709,16.963 C30.892,17.075 31.098,17.238 31.328,17.452 C31.547,17.675 31.763,17.950 31.974,18.276 C32.175,18.584 32.354,18.947 32.510,19.366 C32.638,19.785 32.702,20.274 32.702,20.833 C32.685,21.858 32.454,22.677 32.011,23.292 C31.793,23.591 31.563,23.865 31.320,24.117 C31.050,24.368 30.763,24.624 30.459,24.885 C30.285,25.062 30.124,25.262 29.976,25.486 C29.802,25.719 29.715,25.989 29.715,26.296 C29.715,26.595 29.805,26.841 29.983,27.037 C30.134,27.223 30.282,27.386 30.424,27.526 L31.415,28.322 C32.030,28.816 32.569,29.361 33.033,29.957 C33.470,30.562 33.698,31.354 33.716,32.333 C33.716,33.720 33.091,34.950 31.842,36.021 C30.547,37.130 28.679,37.703 26.237,37.740 C24.193,37.721 22.666,37.293 21.658,36.457 C20.641,35.676 20.132,34.741 20.132,33.654 C20.132,33.123 20.297,32.533 20.628,31.882 C20.949,31.231 21.531,30.660 22.373,30.167 C23.318,29.637 24.311,29.284 25.351,29.107 C26.381,28.958 27.237,28.875 27.918,28.856 C27.708,28.584 27.520,28.294 27.355,27.985 C27.163,27.685 27.067,27.325 27.067,26.903 C27.067,26.650 27.104,26.439 27.177,26.271 C27.241,26.093 27.300,25.929 27.355,25.779 C27.024,25.817 26.711,25.835 26.418,25.835 C24.864,25.817 23.680,25.337 22.865,24.396 C22.013,23.521 21.586,22.501 21.586,21.337 C21.586,19.930 22.190,18.554 23.398,17.408 C24.228,16.737 25.090,16.199 25.985,15.994 C26.870,15.817 27.700,15.603 28.475,15.603 L34.311,15.603 L32.509,16.963 L30.709,16.963 ZM27.767,25.055 C28.535,25.027 29.176,24.757 29.688,24.243 C29.935,23.879 30.094,23.506 30.164,23.123 C30.207,22.741 30.228,22.419 30.228,22.157 C30.228,21.028 29.934,19.889 29.345,18.741 C29.069,18.190 28.706,17.742 28.255,17.397 C27.795,17.070 27.266,16.898 26.668,16.879 C25.877,16.898 25.220,17.210 24.696,17.817 C24.253,18.452 24.042,19.161 24.061,19.945 C24.061,20.981 24.370,22.060 24.988,23.179 C25.287,23.702 25.673,24.145 26.146,24.509 C26.619,24.874 27.159,25.055 27.767,25.055 L27.767,25.055 ZM31.837,33.452 C31.837,32.725 31.595,32.092 31.112,31.552 C30.600,31.039 29.801,30.410 28.714,29.665 C28.528,29.646 28.310,29.637 28.059,29.637 C27.910,29.618 27.529,29.637 26.916,29.693 C26.312,29.777 25.694,29.912 25.062,30.098 C24.913,30.154 24.704,30.238 24.435,30.350 C24.165,30.471 23.891,30.643 23.612,30.867 C23.343,31.100 23.115,31.389 22.929,31.733 C22.716,32.097 22.609,32.535 22.609,33.047 C22.609,34.053 23.073,34.882 24.003,35.535 C24.886,36.187 26.094,36.522 27.627,36.541 C29.002,36.522 30.052,36.224 30.777,35.646 C31.483,35.078 31.837,34.347 31.837,33.452 L31.837,33.452 Z"/></svg>