<svg width="60" height="60" viewBox="0 0 60 60" fill="none" xmlns="http://www.w3.org/2000/svg">
<rect width="60" height="60" rx="8" fill="#0777CF"/>
<path d="M35.8016 11.2583C35.7964 11.2635 35.57 11.2898 35.3024 11.3056C35.04 11.3213 34.7724 11.3476 34.7106 11.3634C34.654 11.3739 34.4739 11.4002 34.3196 11.416C33.9285 11.4633 33.805 11.4843 33.0742 11.621C32.0193 11.826 30.3726 12.3148 29.6111 12.6512C29.5544 12.6775 29.3023 12.7827 29.045 12.8878C28.7929 12.9929 28.2834 13.2347 27.9129 13.424C25.8545 14.4753 24.3211 15.6475 23.014 17.1613C21.9385 18.4071 21.2181 19.8737 21.0123 21.2456C20.9608 21.5873 20.9608 22.8436 21.0123 23.2168C21.2953 25.2932 22.52 26.9647 24.8408 28.4418C25.6796 28.9727 27.0896 29.7349 28.1187 30.208C28.4121 30.3447 28.7929 30.5181 29.6111 30.9019C32.7861 32.3842 34.2218 33.3356 34.9371 34.4448C35.4517 35.249 35.5752 36.1216 35.3384 37.3569C35.0863 38.692 34.1343 40.1586 32.8427 41.1889C30.9387 42.7133 28.4378 43.5438 25.7516 43.549C23.8528 43.549 22.2987 43.2337 21.0689 42.6029C19.8956 41.9984 19.1906 40.9891 19.1906 39.9115C19.1906 38.4923 21.1255 36.9889 22.8493 37.0678C23.5852 37.0993 24.0278 37.4935 24.0278 38.1191C24.0278 38.3293 24.002 38.3819 23.8065 38.5764C23.683 38.7025 23.4771 38.8918 23.3485 38.9969C22.7207 39.5173 22.7979 40.3268 23.5389 40.9103C23.93 41.2204 24.6453 41.5253 25.1547 41.5936C25.2834 41.6094 25.4377 41.6357 25.4943 41.6462C25.7465 41.6988 26.822 41.662 27.2182 41.5884C27.8409 41.478 28.5253 41.2309 28.9833 40.9576C29.8786 40.4214 30.5733 39.5173 30.8203 38.5659C30.9284 38.1559 30.9336 38.1296 30.949 37.6197C30.9953 36.4738 30.5991 35.5118 29.6882 34.5709C28.9266 33.7772 28.0467 33.2515 26.8065 32.8363C26.4669 32.7206 26.1273 32.6155 26.0449 32.5997C25.9626 32.5892 25.7208 32.5419 25.4995 32.4998C24.5115 32.3054 23.0552 32.2843 21.9179 32.4473C20.8527 32.5997 19.6126 32.994 18.5474 33.5249C18.007 33.793 17.0551 34.3554 16.8286 34.5499C16.7823 34.5867 16.5971 34.7391 16.4118 34.8863C14.8783 36.1216 13.808 37.8194 13.5558 39.4069C13.4426 40.1323 13.5044 41.1363 13.7154 41.8722C14.1322 43.3546 15.3466 44.8106 17.0602 45.8882C18.2026 46.6031 19.9419 47.2917 21.3262 47.5808C21.7018 47.6544 22.592 47.8121 22.8236 47.8436C22.9626 47.8646 23.1324 47.8857 23.2044 47.9014C23.9763 48.0329 27.0278 48.0329 27.8357 47.9014C27.9078 47.8909 28.129 47.8594 28.3246 47.8384C28.5253 47.8173 28.6951 47.7963 28.7105 47.7911C28.726 47.7911 28.8546 47.77 28.9935 47.749C29.3229 47.6964 30.0176 47.565 30.28 47.5019C31.9988 47.0972 32.7243 46.8659 34.1394 46.2824C34.7827 46.0196 35.8427 45.494 36.4551 45.1365C36.9182 44.8632 38.0864 44.0852 38.2304 43.9485C38.2716 43.9117 38.5186 43.7015 38.7708 43.4912C41.107 41.5358 42.3883 39.0968 42.3677 36.621C42.3523 35.207 41.9767 33.8613 41.3128 32.852C41.143 32.5892 40.5564 31.8323 40.4843 31.7797C40.4586 31.7639 40.2837 31.5957 40.0933 31.4117C39.0178 30.3447 37.2527 29.204 34.757 27.953C33.3367 27.2381 31.6488 26.376 31.3504 26.2078C29.575 25.2196 28.3915 24.2892 27.8409 23.4639C27.1256 22.3916 27.0124 20.9933 27.5527 19.9105C28.0416 18.9223 29.0038 17.9551 30.2594 17.2034C30.5373 17.0299 31.5253 16.5411 31.8752 16.3939C32.889 15.9734 34.2372 15.6264 35.3487 15.5003C35.7707 15.453 37.4894 15.453 37.8702 15.5003C38.5701 15.5844 39.3368 15.8157 39.7176 16.0522C40.0006 16.2362 40.3197 16.6252 40.3917 16.8775C40.6696 17.892 39.5632 19.1746 37.9268 19.7423C37.4019 19.9263 37.1858 20.126 37.1292 20.4834C37.0829 20.8094 37.1498 20.9671 37.5049 21.3245C37.9268 21.7555 38.8016 22.2286 39.3883 22.3495C39.4449 22.3653 39.5992 22.4021 39.7382 22.4336C40.685 22.6649 42.4552 22.3495 43.6336 21.745C46.1345 20.4624 47.174 17.7606 46.0471 15.474C45.0179 13.3977 42.2391 11.8049 38.8479 11.3634C38.7193 11.3424 38.534 11.3213 38.4363 11.3056C38.2356 11.274 35.8324 11.232 35.8016 11.2583Z" fill="white"/>
</svg>
